<svg width="317" height="88" viewBox="0 0 317 88" fill="none" xmlns="http://www.w3.org/2000/svg">
<g clip-path="url(#clip0_247_4131)">
<path d="M49.7462 41.1059C49.8369 41.1587 49.9244 41.2115 50.0177 41.2583C50.111 41.3111 50.2048 41.3608 50.295 41.4107C50.5315 41.5366 50.7535 41.6508 50.9693 41.7535C51.0276 41.7829 51.0831 41.8121 51.1416 41.8355C51.1416 41.8355 51.1416 41.8386 51.1445 41.8386C51.1999 41.868 51.2585 41.8942 51.3139 41.9177C51.3313 41.9263 51.3458 41.9353 51.3634 41.9411C51.416 41.9645 51.4686 41.9881 51.5183 42.0113C51.6525 42.0701 51.7836 42.1286 51.9181 42.1814C52.0057 42.2165 52.0932 42.2516 52.1777 42.287C52.3238 42.3395 52.4697 42.3952 52.6158 42.448C52.6653 42.4657 52.7122 42.4831 52.7617 42.4979C52.9075 42.5507 53.0563 42.6004 53.2112 42.6503C53.293 42.6795 53.3806 42.7057 53.4653 42.7322C54.3934 43.0311 55.5201 43.3505 57.1547 43.8634C57.8174 44.0714 58.6581 44.3177 59.6242 44.6106C59.6302 44.6137 59.633 44.6137 59.6387 44.6166C64.2188 45.8413 71.741 48.4198 76.1897 52.9503C76.3588 53.1232 76.5254 53.299 76.6829 53.4748C80.0487 57.2227 81.5695 61.3633 81.1987 65.7821C80.6762 71.9945 76.4876 77.3775 72.7423 80.3459C68.5885 83.6365 63.3169 85.3773 58.4335 86.2738C58.8304 86.1537 59.2185 86.022 59.598 85.8842C66.1103 83.5107 70.267 79.0595 71.957 72.651C73.8224 65.5654 72.1643 60.2176 66.8925 56.3025C62.4003 52.9677 56.066 51.242 50.4732 49.7213C49.6413 49.4927 48.8267 49.2729 48.0386 49.0531C47.8606 49.0003 47.6445 48.9447 47.4023 48.8771C46.0566 48.5137 43.8821 47.9277 41.538 46.9813C37.9974 45.4252 34.6288 43.3593 32.5592 40.6313C31.0939 38.5683 30.2736 36.0277 30.6384 32.8953V32.8921C31.9258 25.4844 37.0427 21.0449 41.7862 18.4633C41.8649 18.4194 41.9437 18.3783 42.0199 18.3403C45.3211 16.579 48.4124 15.7176 49.8631 15.3777C49.9097 15.366 49.9566 15.3571 50.0004 15.3454C50.047 15.3337 50.0877 15.3249 50.1258 15.316C50.1491 15.3132 50.1724 15.3072 50.1931 15.3015C50.2048 15.2984 50.2133 15.2955 50.225 15.2926L50.2543 15.2898C50.26 15.2867 50.2631 15.2867 50.2659 15.2867C50.2833 15.2838 50.3009 15.2778 50.3126 15.2778C62.9169 13.6283 71.1544 18.0589 75.851 22.0676C80.2588 25.8331 82.4568 29.9443 82.9851 31.0226C80.2324 33.4196 76.6682 34.926 72.3832 35.5031C72.3423 35.5091 72.3014 35.5149 72.2607 35.5177C72.0767 34.9551 71.8695 34.422 71.6417 33.9208C70.4101 31.1808 68.6001 29.3113 66.5891 28.0485C66.5832 28.0454 66.5774 28.0426 66.5744 28.0395C65.6958 27.4886 64.7823 27.0522 63.8597 26.7091C63.8247 26.6974 63.7869 26.6857 63.7517 26.6711C63.1037 26.4308 62.4586 26.2433 61.8163 26.0909C61.6881 26.0586 61.5624 26.0293 61.437 26.003C61.2823 25.9679 61.1277 25.9356 60.9699 25.9062C60.9204 25.8976 60.8735 25.8888 60.824 25.88C59.2244 25.584 57.7153 25.5049 56.4746 25.5166C56.4424 25.5166 56.4046 25.5195 56.3725 25.5195C55.5815 25.5283 54.9043 25.5782 54.3905 25.6279C54.0112 25.6659 53.6345 25.7275 53.2635 25.8155C52.7148 25.9445 52.242 26.0703 51.8714 26.1817C51.8072 26.1993 51.7489 26.217 51.6846 26.2345C51.594 26.261 51.5036 26.2901 51.416 26.3195C51.3896 26.3281 51.3663 26.3341 51.3458 26.3429C51.2875 26.3606 51.238 26.3752 51.1911 26.3928L51.0976 26.422C51.0717 26.4308 51.0571 26.4366 51.0512 26.4397L51.0424 26.4425L51.0162 26.4485C50.6219 26.5773 50.2631 26.7122 49.9185 26.8704C49.7376 26.9494 49.6413 26.9965 49.6413 26.9965C47.4373 28.0454 44.4835 29.8798 44.2791 33.6365C44.0835 37.3464 46.7893 39.418 49.7462 41.1059ZM47.2272 87.071C46.6872 87.0798 46.1354 87.0769 45.575 87.0684C45.5721 87.0684 45.5721 87.0684 45.5693 87.0684C45.0758 87.0593 44.5767 87.0478 44.0687 87.0273C43.3217 86.9979 42.5598 86.9567 41.7833 86.8982C37.11 86.5641 31.0003 84.6623 27.2553 82.3798C20.8714 78.4822 18.5451 73.2281 17.716 69.5006C16.96 66.087 17.2811 63.2973 17.4066 62.4798C21.102 61.3895 24.7772 60.8387 28.3442 60.8387C28.3909 60.8387 28.4375 60.8415 28.4813 60.8415C28.5251 61.0499 28.5865 61.3427 28.6797 61.7063C28.6888 61.7531 28.7033 61.7999 28.7147 61.8468C28.7383 61.9435 28.7645 62.0403 28.7906 62.1399C28.8316 62.2894 28.8782 62.4445 28.9249 62.6057C28.9717 62.7698 29.0243 62.9399 29.0798 63.1157C29.1119 63.2153 29.1469 63.3178 29.1819 63.4203C29.2023 63.4879 29.2285 63.5553 29.2492 63.6255C29.2987 63.7633 29.3484 63.9038 29.4008 64.0474C29.4272 64.1178 29.4534 64.1911 29.4798 64.2645C29.5176 64.361 29.5526 64.4606 29.5935 64.5603C29.649 64.7009 29.7073 64.8445 29.7656 64.9912C29.7715 65.0027 29.7744 65.0115 29.7803 65.0232C29.8358 65.1639 29.8969 65.3046 29.9614 65.4482C30.0226 65.5886 30.0868 65.7353 30.1539 65.8818C30.1918 65.9579 30.2267 66.0313 30.262 66.1072C30.3291 66.248 30.3993 66.3889 30.4664 66.5325C30.4749 66.5441 30.4837 66.5559 30.4866 66.5676C30.5656 66.7228 30.6444 66.8781 30.7319 67.0334C30.8926 67.3353 31.0617 67.6399 31.2457 67.9419C31.298 68.0327 31.3537 68.1237 31.4092 68.2116C31.4587 68.2875 31.5084 68.3666 31.561 68.4457C31.7592 68.7593 31.9724 69.0728 32.203 69.3836C32.2584 69.4569 32.317 69.539 32.3753 69.6121C32.4919 69.7677 32.6116 69.9199 32.7344 70.0723C32.7955 70.1482 32.8598 70.2216 32.9212 70.2978C32.9823 70.3711 33.0494 70.4502 33.1137 70.5235C33.2277 70.6551 33.3474 70.7843 33.464 70.9134C33.4816 70.9308 33.4961 70.9483 33.5165 70.9659C33.651 71.1095 33.7881 71.253 33.9311 71.3938C34.0772 71.5375 34.2259 71.6783 34.3777 71.8187C34.5296 71.9565 34.6842 72.0913 34.8418 72.226C34.9205 72.2934 35.0024 72.355 35.0811 72.4223C35.1863 72.5046 35.2884 72.5863 35.3964 72.6684C35.4547 72.7124 35.5192 72.7623 35.5804 72.8061C35.8374 72.9938 36.0999 73.1727 36.3714 73.3454C36.8413 73.6411 37.323 73.908 37.8194 74.1423C38.0733 74.2656 38.33 74.3741 38.5899 74.4794C41.9409 75.8186 45.8843 75.8363 50.3623 74.5234C50.3652 74.5234 50.3768 74.5205 50.3913 74.5147C50.3973 74.5147 50.403 74.5116 50.412 74.5086C50.4235 74.5086 50.4292 74.5028 50.4411 74.5C50.59 74.4474 50.946 74.3213 51.4276 74.1072C53.5643 73.1608 58.083 70.5381 57.1199 65.6591C56.3228 61.6153 50.2017 59.6256 49.9361 59.5406L49.504 59.4116C47.671 58.8724 43.8557 57.7444 37.6704 55.7457C28.5543 52.8007 24.9959 50.4274 21.8085 45.1615C19.8994 41.9996 20.0307 37.1588 22.1588 32.5171C22.2112 32.3998 22.2697 32.2768 22.3309 32.1538C22.4215 31.9662 22.5207 31.7699 22.6287 31.5647C22.7746 31.2864 22.9351 30.9935 23.1133 30.6887C23.2008 30.5391 23.2941 30.3867 23.3905 30.2315C23.4402 30.1493 23.4897 30.0702 23.5395 29.9911C23.5919 29.9092 23.6446 29.827 23.6971 29.748C24.1787 29.0096 24.7536 28.2155 25.4397 27.3921C25.5156 27.3011 25.5915 27.2103 25.6733 27.1167C25.7519 27.0256 25.8309 26.932 25.9156 26.8381C26.0788 26.6535 26.2454 26.4662 26.4203 26.2784C26.5081 26.1848 26.5957 26.0909 26.6892 25.9972C26.8698 25.8095 27.0569 25.6191 27.2465 25.4316C27.305 25.373 27.3633 25.3171 27.4188 25.2617C27.4714 25.2118 27.5211 25.165 27.5706 25.1179C27.6056 25.0828 27.6437 25.0448 27.6815 25.0126C27.8333 24.8661 27.9909 24.7223 28.1515 24.579C28.2302 24.5057 28.315 24.4323 28.3937 24.3592C28.4346 24.3239 28.4725 24.2916 28.5106 24.2565C29.3863 23.4916 30.364 22.7298 31.4556 21.9885C31.5726 21.9064 31.6921 21.8273 31.8149 21.7482C31.8848 21.7014 31.9548 21.6543 32.025 21.6104C32.3082 21.4257 32.5942 21.2442 32.8921 21.0655C32.9502 21.0273 33.0087 20.9921 33.0701 20.957C33.2569 20.8457 33.4466 20.7342 33.6362 20.6228C33.7705 20.5466 33.9047 20.4735 34.0363 20.3973C34.1938 20.3094 34.3544 20.2215 34.515 20.1365C34.5907 20.0954 34.6697 20.0545 34.7485 20.0134C35.0783 19.8376 35.4169 19.6675 35.7612 19.4977C35.846 19.4566 35.9335 19.4155 36.0182 19.3747C36.5727 19.1078 37.1478 18.8472 37.7432 18.5981C37.8308 18.5601 37.9155 18.5247 38.0031 18.4896C38.1608 18.4251 38.3184 18.3606 38.4759 18.2992C38.5694 18.2581 38.6684 18.223 38.765 18.185C38.8614 18.1439 38.9575 18.1088 39.0539 18.0706C39.1531 18.0355 39.2524 17.9973 39.3487 17.9593C39.448 17.9242 39.5472 17.8859 39.6464 17.8508C39.8449 17.7775 40.0464 17.7044 40.2509 17.6339C40.3501 17.6019 40.4491 17.5666 40.5485 17.5314C40.9017 17.4113 41.2577 17.2971 41.6227 17.1827C41.7222 17.1504 41.8212 17.1182 41.9235 17.089C41.9963 17.0656 42.0693 17.0451 42.1424 17.0217C42.2504 16.9892 42.3613 16.9569 42.4694 16.9249C42.9072 16.7959 43.3508 16.6729 43.806 16.5556L43.8091 16.5527C43.8557 16.5408 43.9024 16.5293 43.9492 16.5174C43.0909 16.8869 42.189 17.3148 41.2724 17.8069C36.3918 20.491 31.1493 25.1005 29.8241 32.778C29.8213 32.7868 29.8213 32.7925 29.8213 32.8014V32.8102C29.4388 36.0951 30.2474 39.0195 32.2235 41.5455C32.2323 41.5543 32.2411 41.5658 32.2496 41.5777C33.3064 42.9226 34.6899 44.1536 36.4092 45.2699C37.9126 46.2486 39.5122 47.031 41.0418 47.664C43.5231 48.6867 45.8144 49.3049 47.1893 49.6742C47.4285 49.7387 47.6417 49.7972 47.8197 49.8472C48.608 50.0698 49.4252 50.2924 50.2571 50.5182C54.5364 51.6844 59.2244 52.9591 63.1358 54.9576C63.1358 54.9605 63.1387 54.9605 63.1418 54.9605C68.9418 57.9288 73.0343 62.4855 71.5601 70.6377C71.4578 71.221 71.3236 71.8216 71.1601 72.4398C68.641 81.9956 60.5992 86.904 47.2272 87.071ZM29.3337 60.8595C30.84 60.9591 39.7166 61.6358 43.0383 64.0474C43.2894 65.1756 44.9097 71.684 49.034 74.0284C48.9874 74.0398 48.9436 74.0516 48.8998 74.0604C48.6604 74.1189 48.4241 74.1717 48.1904 74.2216C48.1497 74.2302 48.1117 74.2362 48.0736 74.245C47.8606 74.2888 47.6533 74.3299 47.4432 74.3652C47.2914 74.3915 47.1398 74.4178 46.9909 74.4414C46.8769 74.4588 46.766 74.4737 46.658 74.488C46.5383 74.506 46.4245 74.5205 46.3079 74.5354C45.9312 74.579 45.5605 74.6113 45.1957 74.6349C45.0731 74.6435 44.9561 74.6493 44.8366 74.6524C44.7198 74.6581 44.6001 74.6612 44.4835 74.664C44.3666 74.664 44.2469 74.6698 44.1301 74.6698C43.1054 74.6698 42.116 74.5761 41.1732 74.3827C40.7004 74.2888 40.2392 74.1686 39.7894 74.0284C38.7386 73.6971 37.7432 73.237 36.8152 72.6479C36.4297 72.4049 36.0649 72.1441 35.7175 71.8686C35.6299 71.8011 35.5423 71.7308 35.4576 71.6575C35.3731 71.5904 35.2913 71.517 35.2096 71.4466C34.0013 70.3947 33.0233 69.1755 32.2351 67.9388C32.1885 67.8656 32.1447 67.7923 32.1007 67.7221C31.9201 67.4292 31.7506 67.139 31.59 66.8459C31.5462 66.7727 31.5084 66.7026 31.4732 66.6292C30.9915 65.7293 30.6065 64.8534 30.2998 64.0474C30.2824 64.0005 30.2648 63.9566 30.2474 63.9098C29.9962 63.2387 29.8005 62.6262 29.649 62.1048C29.5992 61.9349 29.5583 61.7765 29.5176 61.6272V61.6153C29.4855 61.5128 29.4622 61.4161 29.4417 61.3281C29.4067 61.1846 29.3775 61.0587 29.351 60.9471C29.3484 60.9326 29.3425 60.918 29.3394 60.9003C29.3365 60.8886 29.3337 60.8738 29.3308 60.8595H29.3337ZM57.5897 34.293C57.0992 29.2967 55.1084 27.3128 53.833 26.5452C53.833 26.5452 53.8418 26.5452 53.8651 26.5393C54.6035 26.4131 67.6661 24.3504 71.2389 35.6321C64.8434 36.2298 58.8856 34.6651 57.5897 34.293ZM50.0032 27.7406C50.0061 27.7378 50.0908 27.6967 50.2543 27.6236C50.5636 27.4829 50.8846 27.3627 51.232 27.2483L51.2701 27.2454L51.3196 27.2191L51.3313 27.2132C51.3432 27.2103 51.3605 27.2074 51.3779 27.1986C51.3955 27.1929 51.4188 27.1869 51.4393 27.1809C51.4422 27.178 51.4481 27.178 51.451 27.178C52.0347 27.0022 52.4725 26.9291 52.6332 26.9055C53.1177 27.0316 56.2383 28.1071 56.7956 34.6446L56.8189 34.92L57.079 35.002C57.1401 35.0225 62.1754 36.596 68.2734 36.596C69.2919 36.596 70.3399 36.5492 71.4024 36.4467C71.5163 36.435 71.6303 36.4233 71.7441 36.4145L71.7762 36.4088H71.779C71.928 36.3939 72.0767 36.3763 72.2226 36.356C72.3133 36.3471 72.4066 36.3323 72.497 36.3206C77.0682 35.7083 80.857 34.0615 83.7644 31.4299L83.9862 31.2338L83.8665 30.9581C83.779 30.756 81.6454 25.9445 76.4145 21.4639C71.5865 17.3291 63.1213 12.7609 50.19 14.4604L50.1434 14.4692C49.6413 14.5308 49.177 14.5982 48.7246 14.6713L48.7187 14.6627L48.6778 14.6832C41.5206 15.8554 35.4257 18.1819 30.5537 21.5929C26.4177 24.488 23.2562 28.1451 21.4115 32.1686C19.1727 37.0592 19.0528 42.1988 21.1079 45.5864C24.4181 51.0571 28.0756 53.5131 37.4165 56.534C43.6135 58.5356 47.4344 59.6638 49.2705 60.2056L49.6939 60.3318C49.7522 60.3494 55.6105 62.2512 56.3113 65.8232C57.3446 71.0629 51.2351 73.3572 50.2486 73.6939C45.546 71.9095 43.8267 63.8102 43.8091 63.728L43.7798 63.5758L43.6573 63.4848C40.0231 60.6805 29.9962 60.068 29.1761 60.0212H29.1381L28.8285 60.0152C28.8285 60.0152 28.8285 60.0152 28.8259 60.0152C24.9492 59.9653 20.9444 60.5487 16.9249 61.7617L16.6885 61.8322L16.6388 62.0725C16.6126 62.2072 15.9763 65.4276 16.9074 69.6444C17.7627 73.539 20.1826 79.0302 26.8291 83.0859C30.6705 85.43 36.9349 87.3818 41.7248 87.7245C42.5277 87.7833 43.3186 87.8242 44.092 87.8536H44.1039C44.3402 87.8767 45.8348 88 48.1029 88C54.113 88 65.5383 87.1089 73.2532 80.9966C77.1325 77.9198 81.4729 72.3285 82.019 65.8495C82.41 61.1963 80.822 56.8448 77.2959 52.9209C72.0213 47.0546 61.7785 44.4231 57.692 43.2802C54.8778 42.4919 52.4171 41.6833 50.1519 40.3878C47.0023 38.5888 44.9387 36.7602 45.1022 33.6805C45.2773 30.4015 47.8083 28.7838 50.0032 27.7406Z" fill="#040606"/>
<path d="M71.2379 35.6322C64.8425 36.2299 58.8847 34.6652 57.5887 34.293C57.0983 29.2968 55.1075 27.3128 53.832 26.5453C53.832 26.5453 53.8408 26.5453 53.8642 26.5393C54.6026 26.4132 67.6652 24.3504 71.2379 35.6322Z" fill="#C0E13C"/>
<path d="M71.5599 70.6378C71.4576 71.2211 71.3234 71.8217 71.1599 72.4399C68.6408 81.9957 60.5989 86.9041 47.2269 87.071C46.687 87.0799 46.1352 87.077 45.5748 87.0684C45.5719 87.0684 45.5719 87.0684 45.5691 87.0684C45.0755 87.0594 44.5765 87.0479 44.0685 87.0273C43.3215 86.998 42.5596 86.9568 41.7831 86.8983C37.1098 86.5641 31.0001 84.6624 27.2551 82.3798C20.8712 78.4822 18.5449 73.2282 17.7158 69.5007C16.9598 66.087 17.2808 63.2973 17.4063 62.4799C21.1018 61.3896 24.777 60.8387 28.344 60.8387C28.3906 60.8387 28.4373 60.8416 28.4811 60.8416C28.5248 61.0499 28.5862 61.3428 28.6795 61.7064C28.6886 61.7532 28.7031 61.8 28.7145 61.8468C28.7381 61.9436 28.7642 62.0403 28.7904 62.1399C28.8313 62.2895 28.878 62.4445 28.9246 62.6058C28.9715 62.7699 29.0241 62.94 29.0795 63.1158C29.1117 63.2154 29.1466 63.3179 29.1816 63.4204C29.2021 63.488 29.2283 63.5553 29.249 63.6256C29.2985 63.7634 29.3482 63.9038 29.4005 64.0474C29.427 64.1178 29.4531 64.1912 29.4795 64.2645C29.5174 64.3611 29.5524 64.4607 29.5933 64.5603C29.6487 64.701 29.707 64.8446 29.7653 64.9912C29.7713 65.0027 29.7741 65.0115 29.7801 65.0233C29.8355 65.164 29.8967 65.3047 29.9612 65.4482C30.0223 65.5886 30.0866 65.7353 30.1537 65.8819C30.1915 65.958 30.2265 66.0313 30.2617 66.1073C30.3288 66.248 30.399 66.3889 30.4661 66.5325C30.4747 66.5442 30.4835 66.5559 30.4864 66.5676C30.5654 66.7229 30.6441 66.8782 30.7317 67.0334C30.8923 67.3354 31.0615 67.64 31.2455 67.9419C31.2978 68.0327 31.3535 68.1237 31.4089 68.2116C31.4584 68.2876 31.5082 68.3667 31.5608 68.4457C31.759 68.7594 31.9722 69.0728 32.2028 69.3836C32.2582 69.457 32.3168 69.5391 32.3751 69.6122C32.4917 69.7677 32.6114 69.9199 32.7341 70.0723C32.7953 70.1482 32.8595 70.2216 32.9209 70.2978C32.9821 70.3712 33.0492 70.4502 33.1135 70.5236C33.2274 70.6551 33.3471 70.7844 33.4637 70.9134C33.4813 70.9309 33.4959 70.9483 33.5163 70.966C33.6508 71.1096 33.7878 71.2531 33.9309 71.3938C34.077 71.5376 34.2257 71.6783 34.3775 71.8188C34.5293 71.9566 34.684 72.0913 34.8415 72.2261C34.9203 72.2934 35.0022 72.355 35.0809 72.4224C35.1861 72.5046 35.2882 72.5864 35.3962 72.6685C35.4545 72.7124 35.519 72.7624 35.5802 72.8061C35.8372 72.9939 36.0996 73.1728 36.3711 73.3455C36.8411 73.6412 37.3228 73.9081 37.8191 74.1424C38.073 74.2656 38.3298 74.3742 38.5897 74.4794C41.9406 75.8187 45.8841 75.8363 50.3621 74.5235C50.3649 74.5235 50.3766 74.5206 50.3911 74.5148C50.3971 74.5148 50.4028 74.5117 50.4118 74.5086C50.4232 74.5086 50.4289 74.5028 50.4408 74.5C50.5898 74.4474 50.9458 74.3214 51.4274 74.1073C53.5641 73.1608 58.0827 70.5381 57.1197 65.6592C56.3225 61.6153 50.2014 59.6257 49.9359 59.5406L49.5037 59.4116C47.6707 58.8725 43.8555 57.7445 37.6702 55.7457C28.5541 52.8008 24.9956 50.4275 21.8082 45.1615C19.8992 41.9996 20.0305 37.1589 22.1586 32.5172C22.211 32.3999 22.2695 32.2768 22.3307 32.1538C22.4213 31.9663 22.5204 31.7699 22.6285 31.5647C22.7744 31.2864 22.9348 30.9936 23.1131 30.6887C23.2006 30.5392 23.2939 30.3868 23.3903 30.2315C23.4399 30.1493 23.4895 30.0703 23.5393 29.9912C23.5917 29.9093 23.6443 29.8271 23.6969 29.748C24.1785 29.0096 24.7534 28.2156 25.4394 27.3921C25.5154 27.3011 25.5913 27.2104 25.6731 27.1167C25.7516 27.0257 25.8307 26.932 25.9154 26.8382C26.0786 26.6535 26.2452 26.4662 26.4201 26.2785C26.5079 26.1848 26.5955 26.0909 26.689 25.9973C26.8696 25.8095 27.0566 25.6191 27.2463 25.4316C27.3048 25.3731 27.3631 25.3172 27.4186 25.2618C27.4712 25.2118 27.5209 25.165 27.5704 25.118C27.6054 25.0828 27.6434 25.0449 27.6813 25.0126C27.8331 24.8662 27.9906 24.7224 28.1512 24.579C28.23 24.5057 28.3147 24.4324 28.3935 24.3593C28.4344 24.3239 28.4723 24.2917 28.5103 24.2566C29.386 23.4916 30.3638 22.7298 31.4553 21.9886C31.5724 21.9064 31.6919 21.8273 31.8147 21.7483C31.8846 21.7015 31.9546 21.6544 32.0248 21.6104C32.308 21.4258 32.594 21.2442 32.8919 21.0655C32.95 21.0273 33.0085 20.9922 33.0699 20.9571C33.2567 20.8458 33.4464 20.7342 33.636 20.6229C33.7702 20.5467 33.9044 20.4736 34.036 20.3974C34.1936 20.3095 34.3542 20.2216 34.5148 20.1365C34.5905 20.0954 34.6695 20.0546 34.7482 20.0135C35.0781 19.8377 35.4167 19.6676 35.761 19.4977C35.8457 19.4567 35.9333 19.4156 36.018 19.3747C36.5725 19.1079 37.1476 18.8473 37.743 18.5981C37.8306 18.5601 37.9153 18.5248 38.0028 18.4897C38.1606 18.4252 38.3181 18.3607 38.4757 18.2993C38.5692 18.2582 38.6682 18.2231 38.7648 18.1851C38.8612 18.144 38.9573 18.1089 39.0537 18.0707C39.1529 18.0355 39.2521 17.9973 39.3485 17.9593C39.4477 17.9242 39.547 17.886 39.6462 17.8509C39.8447 17.7775 40.0462 17.7044 40.2506 17.634C40.3499 17.602 40.4488 17.5666 40.5483 17.5315C40.9014 17.4113 41.2574 17.2971 41.6225 17.1827C41.7219 17.1505 41.8209 17.1182 41.9233 17.0891C41.9961 17.0657 42.0691 17.0451 42.1422 17.0217C42.2502 16.9892 42.3611 16.957 42.4691 16.925C42.907 16.796 43.3505 16.673 43.8058 16.5557L43.8089 16.5528C43.8555 16.5408 43.9021 16.5294 43.949 16.5174C43.0907 16.887 42.1888 17.3148 41.2722 17.8069C36.3916 20.491 31.1491 25.1005 29.8239 32.778C29.821 32.7869 29.821 32.7926 29.821 32.8014V32.8103C29.4386 36.0951 30.2472 39.0196 32.2232 41.5455C32.232 41.5544 32.2408 41.5658 32.2494 41.5778C33.3062 42.9227 34.6897 44.1537 36.409 45.27C37.9124 46.2487 39.512 47.031 41.0416 47.6641C43.5228 48.6867 45.8142 49.3049 47.1891 49.6743C47.4282 49.7388 47.6415 49.7973 47.8195 49.8472C48.6078 50.0699 49.425 50.2925 50.2569 50.5182C54.5361 51.6845 59.2242 52.9592 63.1356 54.9577C63.1356 54.9605 63.1384 54.9605 63.1415 54.9605C68.9416 57.9289 73.0341 62.4856 71.5599 70.6378Z" fill="#C0E13C"/>
<path d="M59.974 6.15582C59.9245 6.1207 59.866 6.09753 59.8048 6.07986C57.0697 5.40573 54.2266 5.18023 51.4536 5.24162C51.4476 5.24472 51.4417 5.24162 51.4388 5.24162C42.8073 5.43225 34.8939 8.3772 33.3 9.09792C33.2741 9.11249 33.2505 9.12156 33.2272 9.13303L24.5956 1.11275L24.835 0.825611H68.3312L59.974 6.15582ZM57.2332 7.80555L55.7795 7.57718C55.3678 7.51554 54.1768 7.36338 52.3993 7.33686C49.4773 7.37485 45.6942 7.66795 41.8676 8.62325C41.7362 8.6555 41.6049 8.69062 41.4735 8.72573C41.3362 8.76085 41.1991 8.79907 41.0618 8.83729C30.5359 11.7323 21.5044 18.352 14.2214 28.5115L8.67243 28.9217C8.78629 25.2558 9.27078 20.5235 10.8617 17.681L24.0674 1.74865L32.871 9.93018L33.0811 10.1265L33.3381 9.99755C33.3409 9.99468 33.3469 9.99158 33.3585 9.98584C33.8461 9.7718 42.2207 6.29079 51.4388 6.06791H51.4448C53.2895 6.11497 57.3236 6.24087 59.2209 6.66298L57.2332 7.80555ZM56.9296 11.4187C56.9296 11.4657 56.8886 11.5068 56.842 11.5068C44.7367 11.6181 34.7975 14.8588 27.2929 21.1357C24.2687 23.6648 22.0854 26.3401 20.5527 28.6551C19.0203 30.973 18.133 32.9304 17.701 34.0262C17.6952 34.041 17.6804 34.0789 17.6281 34.082C17.5899 34.0849 17.5609 34.0672 17.5433 34.035L14.925 28.9451C22.0912 18.9703 30.9592 12.4764 41.2808 9.63421C41.4181 9.59909 41.5523 9.56087 41.6865 9.52886C46.0999 8.35953 49.8597 8.12804 52.3847 8.16316C52.3874 8.16316 52.3874 8.16316 52.3874 8.16316C53.9755 8.14572 55.2979 8.20425 56.229 8.27161C56.4946 8.28929 56.7282 8.30673 56.9296 8.32728V11.4187ZM7.83771 28.9802C7.83771 28.9831 7.83771 28.9831 7.83771 28.9831L1.08017 29.4814L9.09564 19.8142C8.22283 22.6567 7.91645 26.1494 7.83771 28.9802ZM9.09564 34.9229C9.2679 35.0901 9.37294 35.3302 9.37294 35.5971C9.37294 35.8519 9.27673 36.0805 9.12196 36.2447V36.2855H9.0752C8.92926 36.4262 8.73956 36.5084 8.52939 36.5084C8.3221 36.5084 8.12959 36.4262 7.98365 36.2855C7.80259 36.1245 7.68582 35.8754 7.68582 35.5971C7.68582 35.093 8.06527 34.6855 8.52939 34.6855C8.75127 34.6855 8.94973 34.7765 9.09564 34.9229ZM9.49563 38.876C9.52771 38.999 9.56571 39.128 9.60355 39.2627C9.61526 39.295 9.62392 39.3301 9.63562 39.3623C9.63562 39.3654 9.63562 39.3654 9.63562 39.3654C9.63562 39.3683 9.63562 39.3712 9.63562 39.3712C9.63562 39.374 9.63562 39.374 9.63869 39.374C9.63869 39.3771 9.63869 39.3771 9.63869 39.3771C9.65616 39.4328 9.67372 39.4942 9.69121 39.553C9.71741 39.6349 9.74373 39.7199 9.77281 39.8019C9.77876 39.8224 9.78464 39.8458 9.79634 39.8664C11.2907 44.1271 14.8229 48.0274 15.7306 48.9858C15.7306 48.9884 15.7277 48.9884 15.7277 48.9915C15.36 49.7798 14.9307 51.1247 14.6885 51.9102C8.53822 46.2458 8.57027 38.826 8.66658 37.1149H9.15701C9.1598 37.1266 9.1598 37.1383 9.16287 37.1441C9.16863 37.1911 9.1716 37.241 9.17736 37.2936C9.18609 37.3347 9.19214 37.3875 9.1978 37.4372C9.20663 37.4869 9.21539 37.5397 9.22421 37.5984C9.22421 37.6099 9.227 37.6247 9.22997 37.6393C9.25339 37.774 9.27673 37.9178 9.30879 38.0759C9.32052 38.1373 9.33203 38.1961 9.34672 38.2577C9.34672 38.2663 9.34969 38.2752 9.34969 38.2811C9.37294 38.3925 9.40499 38.5126 9.43429 38.6357C9.45473 38.7119 9.47519 38.7938 9.49563 38.876ZM69.6215 0.447693C69.5427 0.180859 69.3033 -0.000694275 69.023 -0.000694275H24.4467L23.9914 0.550175L0.143106 29.3173C-0.0144503 29.5108 -0.0466123 29.7802 0.0701375 30.0029C0.0963503 30.0557 0.128419 30.1025 0.169319 30.1436C0.207244 30.1847 0.251026 30.2198 0.300755 30.252C0.347326 30.2783 0.396962 30.3017 0.452362 30.3165C0.508043 30.334 0.563442 30.343 0.621817 30.343C0.636411 30.343 0.65398 30.3399 0.668481 30.3399L7.81727 29.8125C7.81132 30.1436 7.81132 30.4601 7.81132 30.7649C7.81132 32.4118 7.87257 33.6365 7.89589 34.0644C7.30342 34.3398 6.89767 34.8701 6.89767 35.4795C6.89767 36.0746 7.28307 36.5961 7.85798 36.8746C7.74997 38.3425 7.46692 46.7938 14.6331 52.9651L15.1176 53.3841L15.2957 52.7628C15.3045 52.7365 16.0808 50.0347 16.583 49.1234C16.5975 49.1 16.6121 49.0737 16.6295 49.0472C16.8777 48.6339 17.4412 47.7225 17.6892 47.418L17.9665 47.0752L17.6074 46.82C17.5492 46.7763 11.8104 42.6386 9.98595 36.7544C9.97722 36.7633 9.96561 36.7661 9.95985 36.7721C9.9539 36.7399 9.9539 36.7105 9.95083 36.6782L9.94804 36.6254C9.95985 36.6694 9.97434 36.7105 9.98595 36.7544C10.4413 36.4613 10.7362 35.9984 10.7362 35.4795C10.7362 34.6828 10.0473 34.0204 9.1424 33.8943C9.12196 33.8886 9.09862 33.8857 9.0752 33.8826C8.99051 33.8737 8.90585 33.868 8.81828 33.868C8.78332 33.868 8.74829 33.868 8.71334 33.8737C8.68414 33.2586 8.61694 31.7083 8.65208 29.7511L14.201 29.3407L16.8136 34.4131C16.9741 34.7208 17.2777 34.9083 17.6192 34.9083C17.6338 34.9083 17.6513 34.9083 17.6659 34.9055C17.847 34.8966 18.0133 34.8379 18.1505 34.7383C18.2906 34.6386 18.3987 34.501 18.4657 34.3341C19.3093 32.2006 21.916 26.7063 27.8212 21.7688C35.1742 15.618 44.9411 12.4444 56.8477 12.3331C57.3469 12.3271 57.7496 11.917 57.7496 11.4187V8.55589L69.3587 1.14811C69.5922 0.998566 69.7002 0.717152 69.6215 0.447693Z" fill="#040606"/>
<path d="M15.7299 48.9857C15.7299 48.9884 15.727 48.9884 15.727 48.9915C15.3593 49.7798 14.93 51.1247 14.6878 51.9102C8.53755 46.2457 8.5696 38.826 8.6659 37.1149H9.15634C9.15912 37.1266 9.15912 37.1383 9.16219 37.144C9.16795 37.1911 9.17093 37.241 9.17669 37.2936C9.18542 37.3347 9.19146 37.3875 9.19713 37.4371C9.20596 37.4868 9.21471 37.5396 9.22354 37.5984C9.22354 37.6099 9.22632 37.6247 9.2293 37.6392C9.25271 37.774 9.27606 37.9178 9.30811 38.0759C9.31984 38.1373 9.33136 38.1961 9.34604 38.2577C9.34604 38.2663 9.34902 38.2751 9.34902 38.2811C9.37227 38.3924 9.40432 38.5126 9.43361 38.6356C9.45405 38.7118 9.47452 38.7938 9.49496 38.8759C9.52704 38.999 9.56504 39.128 9.60287 39.2627C9.61458 39.2949 9.62324 39.3301 9.63495 39.3623C9.63495 39.3654 9.63495 39.3654 9.63495 39.3654C9.63495 39.3683 9.63495 39.3711 9.63495 39.3711C9.63495 39.374 9.63495 39.374 9.63802 39.374C9.63802 39.3771 9.63802 39.3771 9.63802 39.3771C9.65549 39.4328 9.67305 39.4942 9.69054 39.5529C9.71674 39.6349 9.74306 39.7199 9.77214 39.8019C9.77809 39.8224 9.78396 39.8458 9.79567 39.8664C11.2901 44.1271 14.8222 48.0273 15.7299 48.9857Z" fill="#C0E13C"/>
<path d="M9.37462 35.597C9.37462 35.8519 9.27841 36.0805 9.12364 36.2446V36.2855H9.07688C8.93094 36.4262 8.74124 36.5084 8.53107 36.5084C8.32378 36.5084 8.13127 36.4262 7.98533 36.2855C7.80427 36.1245 7.6875 35.8753 7.6875 35.597C7.6875 35.093 8.06695 34.6854 8.53107 34.6854C8.75295 34.6854 8.95141 34.7765 9.09732 34.9229C9.26959 35.0901 9.37462 35.3302 9.37462 35.597Z" fill="#C0E13C"/>
<path d="M9.0975 19.8142C8.22469 22.6567 7.91831 26.1494 7.83957 28.9802C7.83957 28.9831 7.83957 28.9831 7.83957 28.9831L1.08203 29.4814L9.0975 19.8142Z" fill="#C0E13C"/>
<path d="M59.2203 6.66299L57.2326 7.80556L55.7789 7.57719C55.3673 7.51556 54.1763 7.36339 52.3987 7.33688C49.4768 7.37486 45.6937 7.66797 41.867 8.62326C41.7357 8.65551 41.6043 8.69063 41.4729 8.72574C41.3356 8.76086 41.1986 8.79908 41.0613 8.8373C30.5353 11.7323 21.5038 18.352 14.2208 28.5115L8.67188 28.9217C8.78574 25.2558 9.27023 20.5235 10.8611 17.681L24.0668 1.74866L32.8704 9.93019L33.0805 10.1266L33.3375 9.99756C33.3404 9.99469 33.3463 9.99159 33.358 9.98586C33.8456 9.77182 42.2201 6.2908 51.4383 6.06792H51.4442C53.2889 6.11498 57.3231 6.24088 59.2203 6.66299Z" fill="#C0E13C"/>
<path d="M49.0324 74.0293C48.9876 74.0403 48.9429 74.0516 48.9005 74.0607C48.6592 74.1189 48.4227 74.1727 48.1881 74.2221C48.1502 74.231 48.11 74.2379 48.0722 74.2468C47.8599 74.2893 47.6522 74.3296 47.4423 74.3657C47.2905 74.3925 47.1387 74.4173 46.989 74.4417C46.8774 74.4575 46.7658 74.4732 46.6563 74.4887C46.5378 74.5045 46.4217 74.5203 46.3056 74.5337C45.9305 74.5786 45.5598 74.6123 45.1936 74.6347C45.0729 74.6435 44.9547 74.6478 44.8362 74.6527C44.7179 74.6593 44.5996 74.6614 44.4814 74.6639C44.365 74.666 44.2467 74.6682 44.1306 74.6682C43.1036 74.6682 42.1165 74.574 41.1718 74.3834C40.6985 74.2893 40.2385 74.1705 39.7873 74.0293C38.7377 73.6976 37.744 73.2379 36.815 72.6484C36.4309 72.404 36.0649 72.1441 35.7163 71.8685C35.6292 71.8008 35.5421 71.7313 35.4574 71.6599C35.3724 71.5904 35.2899 71.5187 35.2073 71.4468C33.9992 70.3955 33.0211 69.176 32.2349 67.9383C32.188 67.8669 32.1435 67.7929 32.0988 67.7209C31.918 67.4297 31.7481 67.1383 31.5896 66.8469C31.5472 66.7728 31.5091 66.7011 31.4713 66.6293C30.9911 65.7303 30.6049 64.8517 30.2989 64.0491C30.281 64.002 30.2632 63.9571 30.2475 63.91C29.9952 63.2397 29.7987 62.6255 29.649 62.1033C29.6 61.9352 29.5574 61.7761 29.5174 61.628C29.5174 61.6234 29.515 61.6189 29.515 61.6146C29.4884 61.5138 29.4636 61.4173 29.4415 61.3277C29.4058 61.1865 29.3768 61.0587 29.3499 60.9488C29.343 60.9173 29.3366 60.886 29.332 60.8592C30.8393 60.9577 39.7157 61.6347 43.0365 64.0491C43.2887 65.1765 44.9099 71.6821 49.0324 74.0293Z" fill="#040606"/>
<path d="M76.6808 53.4751C80.0477 57.2225 81.5661 61.364 81.1956 65.7822C80.6738 71.9936 76.4845 77.3781 72.7392 80.3469C68.5854 83.6378 63.3152 85.3763 58.4316 86.2736C58.827 86.1532 59.2163 86.022 59.5947 85.883C66.1077 83.5112 70.2658 79.0603 71.9542 72.6503C73.8198 65.5647 72.1629 60.2181 66.8896 56.3018C62.3981 52.9684 56.0627 51.2425 50.4718 49.7196C49.6384 49.4932 48.8255 49.2743 48.0374 49.0522C47.8585 49.0006 47.6436 48.9442 47.4006 48.8768C46.0535 48.5142 43.8809 47.928 41.537 46.9822C37.9957 45.425 34.6254 43.3581 32.5557 40.6301C31.0917 38.5695 30.2727 36.0273 30.637 32.896V32.8926C31.9251 25.4837 37.0393 21.0435 41.7847 18.4624C41.8626 18.4201 41.9404 18.3795 42.0168 18.3406C45.3199 16.5786 48.4098 15.7171 49.8597 15.3763C49.9064 15.3653 49.9532 15.3559 49.9984 15.345C50.0451 15.3342 50.087 15.3247 50.1243 15.3153C50.1479 15.3122 50.1712 15.3058 50.1914 15.3012C50.2131 15.2965 50.2333 15.2919 50.2521 15.2886C50.2569 15.2871 50.2616 15.2871 50.2631 15.2871C50.2819 15.2826 50.2988 15.2793 50.3097 15.2778C62.9136 13.6283 71.1537 18.0592 75.8477 22.0676C80.2564 25.8339 82.4554 29.9455 82.9818 31.0212C80.2314 33.4196 76.6668 34.9267 72.3825 35.502C72.3404 35.5084 72.2999 35.5144 72.2578 35.5192C72.0741 34.9549 71.8668 34.4234 71.6396 33.9198C70.4093 31.1808 68.598 29.3125 66.586 28.0478C66.5812 28.0445 66.5765 28.0414 66.572 28.0397C65.6951 27.4879 64.7808 27.0519 63.859 26.7094C63.932 26.7328 64.0053 26.7579 64.0769 26.783C63.9896 26.7517 63.9009 26.7204 63.8138 26.6922C63.8107 26.6905 63.809 26.6905 63.8059 26.6891C63.141 26.4437 62.4728 26.2467 61.8139 26.0902C61.6881 26.0589 61.5617 26.0293 61.4356 26.0028C61.2799 25.9684 61.1241 25.9371 60.9685 25.9074C60.9185 25.8965 60.8704 25.8871 60.8204 25.8793C59.2225 25.5838 57.7134 25.504 56.4738 25.5164C56.4396 25.5164 56.4039 25.5181 56.3696 25.5181C55.5784 25.5291 54.9024 25.5775 54.3869 25.6275C54.0086 25.6652 53.6331 25.7276 53.2626 25.815C52.7129 25.9435 52.2408 26.0716 51.8686 26.181C51.8034 26.1998 51.7425 26.2185 51.6835 26.2357C51.593 26.2624 51.5026 26.2904 51.4124 26.3186C51.4 26.3231 51.386 26.3264 51.3734 26.3312C51.3627 26.3341 51.3532 26.3372 51.3439 26.342C51.2863 26.3608 51.2349 26.3764 51.1897 26.3919H51.1883L51.0962 26.4218C51.0698 26.4296 51.0543 26.4373 51.0479 26.439L51.0402 26.4421L51.0138 26.4499C50.6212 26.5766 50.2616 26.7125 49.9173 26.8704C49.7367 26.9487 49.6384 26.997 49.6384 26.997C47.4349 28.0462 44.4806 29.8784 44.2781 33.637C44.0801 37.3469 46.7869 39.4185 49.7429 41.1069C49.8333 41.1585 49.9235 41.2101 50.0153 41.2586C50.1105 41.3116 50.2038 41.3618 50.2942 41.4103C50.5293 41.5367 50.7521 41.6508 50.9669 41.7543C51.0245 41.7839 51.0821 41.8118 51.1397 41.8369C51.1397 41.8369 51.1397 41.8386 51.1414 41.8386C51.199 41.8668 51.2551 41.8933 51.3127 41.9184C51.3282 41.926 51.3439 41.9339 51.361 41.9418C51.4124 41.9652 51.4652 41.9886 51.5166 42.012C51.6506 42.0715 51.7832 42.1279 51.9169 42.1826C52.0026 42.217 52.0899 42.2514 52.177 42.2858C52.3219 42.3405 52.4668 42.3952 52.6146 42.4468C52.6629 42.4654 52.7112 42.4826 52.7595 42.4982C52.9059 42.55 53.0539 42.5999 53.2081 42.6501C53.2921 42.678 53.3777 42.7048 53.4634 42.7327C54.3917 43.0299 55.5191 43.3519 57.1513 43.8631C57.8148 44.071 58.6557 44.318 59.6228 44.612C59.6275 44.6137 59.6306 44.6137 59.6354 44.6151C64.2154 45.8409 71.7391 48.4203 76.187 52.9512C76.3569 53.1232 76.5218 53.2983 76.6808 53.4751Z" fill="#040606"/>
<path d="M54.3894 25.6275C54.9049 25.5776 55.5809 25.5291 56.3721 25.5181C54.8473 25.5415 53.335 25.7603 51.8711 26.181C52.2433 26.0716 52.7154 25.9435 53.2651 25.815C53.6356 25.7276 54.0111 25.6652 54.3894 25.6275Z" fill="#040606"/>
<path d="M50.9696 41.7543C50.7547 41.6508 50.532 41.5366 50.2969 41.4103C50.3902 41.4585 50.4853 41.5087 50.5786 41.5572C50.7081 41.6243 50.8387 41.69 50.9696 41.7543Z" fill="#040606"/>
<path d="M56.9304 8.32726V11.4187C56.9304 11.4657 56.8895 11.5068 56.8428 11.5068C44.7375 11.6181 34.7983 14.8588 27.2937 21.1357C24.2695 23.6648 22.0862 26.3401 20.5536 28.6551C19.0211 30.973 18.1338 32.9304 17.7018 34.0261C17.696 34.041 17.6812 34.0789 17.6289 34.082C17.5908 34.0849 17.5617 34.0672 17.5441 34.035L14.9258 28.9451C22.092 18.9702 30.96 12.4764 41.2816 9.6342C41.4189 9.59908 41.5531 9.56086 41.6873 9.52885C46.1008 8.35951 49.8605 8.12803 52.3856 8.16315C52.3882 8.16315 52.3882 8.16315 52.3882 8.16315C53.9763 8.14571 55.2987 8.20424 56.2298 8.2716C56.4954 8.28928 56.7291 8.30672 56.9304 8.32726Z" fill="#040606"/>
<path d="M68.3294 0.825635L59.9722 6.15585C59.9227 6.12073 59.8641 6.09756 59.803 6.07988C57.0678 5.40575 54.2247 5.18025 51.4517 5.24164C51.4458 5.24475 51.4398 5.24164 51.437 5.24164C42.8054 5.43227 34.892 8.37723 33.2981 9.09794C33.2722 9.11251 33.2486 9.12159 33.2253 9.13306L24.5938 1.11277L24.8331 0.825635H68.3294Z" fill="#040606"/>
<path d="M116.995 36.5452L113.044 35.8049C109.75 35.2034 109.306 34.3436 109.306 33.5821C109.306 32.3607 110.937 31.4742 113.184 31.4742C115.686 31.4742 117.441 32.6934 117.551 34.508L117.574 34.8952L123.714 34.0254L123.677 33.681C123.287 30.0074 119.2 27.6339 113.265 27.6339C106.964 27.6339 102.892 30.1085 102.892 33.9382C102.892 37.0189 105.331 38.8346 110.796 39.8248L114.786 40.5921C118.319 41.2667 118.772 42.1494 118.772 42.8431C118.772 44.1971 116.859 45.1426 114.12 45.1426C110.652 45.1426 108.153 43.5476 108.043 41.2641L108.025 40.8802L101.77 41.6231L101.794 41.964C102.092 46.2443 106.851 49.0101 113.917 49.0101C120.787 49.0101 125.227 46.4495 125.227 42.4869C125.227 39.3781 122.687 37.5451 116.995 36.5452Z" fill="#231F20"/>
<path d="M160.893 48.4074V28.2368H152.257L144.757 42.7631L137.218 28.2368H128.582V48.4074H134.874V35.0615L141.917 48.4074H147.558L154.6 35.0615V48.4074H160.893Z" fill="#231F20"/>
<path d="M173.674 40.5942L177.305 32.7378L180.829 40.5942H173.674ZM181.156 28.2368H173.339L163.629 48.4074H170.455L172.287 44.3249H182.208L184.041 48.4074H190.909L181.156 28.2368Z" fill="#231F20"/>
<path d="M205.688 37.0323H200.303V32.0771H205.688C208.445 32.0771 210.298 33.0893 210.298 34.5959C210.298 36.0304 208.402 37.0323 205.688 37.0323ZM216.681 44.6367C216.151 45.1359 215.617 45.3892 215.093 45.3892C214.623 45.3892 214.301 45.1448 214.083 44.6326L213.028 41.8745C212.704 40.955 212.142 40.2792 211.29 39.8002C214.744 38.972 216.916 36.9773 216.916 34.541C216.916 30.7702 212.567 28.2368 206.095 28.2368H193.645V48.4074H200.303V40.7082H203.692C204.958 40.7082 206.146 41.4084 206.577 42.4002L208.002 45.9883C208.721 47.8566 210.638 48.928 213.261 48.928C215.389 48.928 217.428 48.2914 218.854 47.1815L219.151 46.9507L216.954 44.3803L216.681 44.6367Z" fill="#231F20"/>
<path d="M226.871 48.4074H233.529V32.3786H241.306V28.2368H219.094V32.3786H226.871V48.4074Z" fill="#231F20"/>
<path d="M277.254 28.2368H269.116L260.361 35.7181V28.2368H253.703V48.4074H260.361V41.8364L262.8 39.8664L269.687 48.4074H277.43L267.272 36.3963L277.254 28.2368Z" fill="#231F20"/>
<path d="M279.965 48.4074H286.623V28.2368H279.965V48.4074Z" fill="#231F20"/>
<path d="M302.311 44.4028H298.025V32.214H302.311C307.515 32.214 310.382 34.3833 310.382 38.322C310.382 42.2433 307.515 44.4028 302.311 44.4028ZM302.351 28.2368H291.488V48.4074H302.351C306.984 48.4074 310.611 47.5384 313.133 45.8248C315.698 44.08 317 41.5557 317 38.322C317 31.8184 311.796 28.2368 302.351 28.2368Z" fill="#231F20"/>
<path d="M192.288 61.1648C191.743 60.9708 191.172 60.8494 190.61 60.7037C189.798 60.4928 188.95 60.3717 188.176 60.0638C187.143 59.6526 186.961 58.3935 187.797 57.647C188.095 57.3801 188.512 57.1788 188.905 57.099C190.426 56.7913 191.392 57.437 191.983 59.1137C192.557 58.9862 193.137 58.8572 193.883 58.6909C193.616 58.1195 193.451 57.5956 193.154 57.1632C191.684 55.0257 187.941 54.7875 186.178 56.6943C184.608 58.3937 185.167 60.9522 187.311 61.773C187.906 62.0009 188.544 62.1148 189.162 62.2849C189.99 62.5135 190.854 62.6595 191.635 62.9987C192.676 63.4509 192.814 64.7271 191.949 65.4733C191.656 65.7255 191.272 65.92 190.897 66.0193C188.87 66.5582 187.301 65.6269 186.61 63.47C186.018 63.583 185.419 63.6972 184.785 63.8176C184.941 65.077 185.469 66.0674 186.471 66.7365C188.401 68.0255 190.462 68.1122 192.535 67.1522C193.856 66.5403 194.508 65.403 194.483 63.9425C194.458 62.4815 193.587 61.6273 192.288 61.1648Z" fill="#231F20"/>
<path d="M121.638 59.7475C121.638 59.5358 121.62 59.3242 121.609 59.102C120.994 59.102 120.44 59.102 119.826 59.102C119.826 59.3505 119.827 59.5671 119.826 59.7838C119.824 61.2331 119.854 62.6836 119.809 64.1317C119.769 65.4281 118.791 66.3149 117.537 66.2872C116.398 66.2623 115.734 65.4838 115.714 64.1219C115.701 63.1759 115.711 62.2295 115.711 61.2833C115.711 60.5666 115.711 59.8502 115.711 59.0712C115.154 59.0712 114.675 59.0461 114.201 59.0889C114.082 59.0999 113.888 59.3292 113.887 59.4587C113.883 61.3103 113.839 63.1657 113.944 65.012C114.019 66.3178 114.748 67.2969 116.029 67.6946C117.346 68.1029 118.529 67.8079 119.47 66.7487C119.567 66.64 119.622 66.494 119.696 66.3653C119.937 68.4699 118.909 69.5654 116.935 69.5346C115.728 69.5159 114.739 69.0229 113.967 68.0418C113.631 68.4586 113.33 68.8322 113 69.2422C113.863 70.4497 115.058 70.9076 116.39 71.0586C119.061 71.3613 121.814 70.1934 121.665 66.5115C121.574 64.2602 121.643 62.0025 121.638 59.7475Z" fill="#231F20"/>
<path d="M212.272 66.0437C210.779 66.0403 209.684 64.8522 209.682 63.2316C209.679 61.6172 210.772 60.4111 212.257 60.3905C213.747 60.37 214.894 61.616 214.884 63.245C214.875 64.8522 213.76 66.0469 212.272 66.0437ZM214.831 60.359C214.78 60.3831 214.729 60.4075 214.678 60.4319C214.644 60.36 214.619 60.2816 214.575 60.2166C213.182 58.1842 209.97 58.4006 208.668 60.4192C207.606 62.0651 207.542 63.8078 208.377 65.5308C209.704 68.2725 213.386 68.246 214.676 66.1254C214.71 66.0697 214.78 66.0363 214.862 65.968C214.953 66.452 215.034 66.8845 215.119 67.3358C215.622 67.3358 216.099 67.3358 216.642 67.3358C216.642 63.3262 216.642 59.3684 216.642 55.3671C216.051 55.3671 215.48 55.3671 214.831 55.3671C214.831 57.0471 214.831 58.7028 214.831 60.359Z" fill="#231F20"/>
<path d="M106.699 66.0423C105.218 66.021 104.134 64.809 104.148 63.1876C104.161 61.583 105.296 60.3721 106.768 60.3896C108.269 60.4075 109.374 61.6497 109.35 63.2906C109.326 64.9035 108.208 66.0642 106.699 66.0423ZM104.417 60.2551C104.383 60.3084 104.313 60.3387 104.161 60.4558C104.161 58.6854 104.161 57.029 104.161 55.3783C103.525 55.3783 102.958 55.3783 102.398 55.3783C102.398 59.3922 102.398 63.3513 102.398 67.3258C102.925 67.3258 103.415 67.3258 103.912 67.3258C103.999 66.8648 104.08 66.4355 104.172 65.9412C104.275 66.0529 104.337 66.1025 104.378 66.166C105.732 68.2679 109.063 68.0322 110.338 66.0595C111.403 64.4121 111.491 62.6764 110.669 60.9483C109.353 58.1849 105.742 58.1911 104.417 60.2551Z" fill="#231F20"/>
<path d="M132.5 62.1753C134.28 62.1753 136.015 62.1753 137.761 62.1753C137.761 61.6409 137.761 61.1715 137.761 60.6395C135.98 60.6395 134.242 60.6395 132.483 60.6395C132.483 59.576 132.483 58.5758 132.483 57.486C134.482 57.486 136.453 57.486 138.422 57.486C138.422 56.8869 138.422 56.3785 138.422 55.8573C138.253 55.8415 138.135 55.8207 138.017 55.8207C135.55 55.8186 133.084 55.8191 130.555 55.8191C130.555 59.7057 130.555 63.5133 130.555 67.3251C133.261 67.3251 135.92 67.3251 138.583 67.3251C138.583 66.7597 138.583 66.2301 138.583 65.6434C136.525 65.6434 134.508 65.6434 132.5 65.6434C132.5 64.4691 132.5 63.3535 132.5 62.1753Z" fill="#231F20"/>
<path d="M246.278 65.8411C245.457 66.3471 244.148 66.3643 243.477 65.878C242.901 65.463 242.854 64.7229 243.418 64.2986C243.696 64.0892 244.046 63.9224 244.386 63.8575C245.324 63.6785 246.276 63.5634 247.258 63.4179C247.439 64.5012 247.07 65.3509 246.278 65.8411ZM249.469 66.1386C249.286 66.0253 249.207 65.6348 249.203 65.3619C249.174 64.2356 249.205 63.1083 249.183 61.9817C249.155 60.5386 248.451 59.5205 247.104 59.0456C245.762 58.5719 244.415 58.6355 243.134 59.2764C242.223 59.7326 241.573 60.429 241.416 61.5417C241.999 61.6834 242.54 61.8145 243.077 61.9452C243.127 61.8551 243.168 61.8078 243.182 61.7541C243.553 60.2018 245.683 59.8478 246.752 60.5733C246.97 60.7223 247.168 60.9624 247.277 61.2051C247.539 61.7911 247.301 62.1846 246.666 62.2813C246.29 62.3384 245.911 62.3685 245.533 62.4139C244.436 62.546 243.334 62.6647 242.366 63.2636C240.817 64.2217 240.817 66.2513 242.359 67.1746C243.853 68.0687 246.021 67.6889 247.113 66.3421C247.185 66.2549 247.265 66.1758 247.384 66.0461C247.442 66.8579 247.806 67.4056 248.529 67.5698C249.424 67.7737 250.228 67.5246 250.887 66.8246C250.69 66.4991 250.504 66.1928 250.364 65.9577C249.988 66.0463 249.636 66.2427 249.469 66.1386Z" fill="#231F20"/>
<path d="M172.668 65.8077C171.791 66.3452 170.845 66.4264 169.926 65.9243C169.193 65.5235 169.181 64.6804 169.879 64.2134C170.124 64.0503 170.413 63.9143 170.699 63.8632C171.661 63.6919 172.63 63.5644 173.663 63.4101C173.77 64.4882 173.506 65.2939 172.668 65.8077ZM175.821 66.1353C175.635 66.0146 175.553 65.6278 175.546 65.3536C175.513 64.1466 175.55 62.9378 175.512 61.7312C175.474 60.5036 174.827 59.6379 173.728 59.1589C172.329 58.55 170.906 58.6011 169.535 59.2566C168.608 59.6997 167.95 60.4028 167.768 61.5336C168.336 61.6753 168.889 61.8136 169.433 61.9493C170.074 60.4321 171.454 59.8058 172.811 60.4159C173.118 60.5542 173.421 60.8277 173.592 61.1185C173.942 61.7123 173.673 62.1855 172.996 62.2849C172.639 62.3372 172.271 62.3358 171.922 62.4175C170.895 62.6578 169.829 62.8169 168.864 63.2151C167.811 63.6497 167.398 64.6787 167.621 65.6976C167.85 66.7389 168.798 67.4813 170.053 67.6082C171.526 67.7568 172.782 67.3629 173.731 66.0111C173.818 66.8853 174.191 67.4367 174.944 67.5827C175.82 67.7527 176.601 67.5141 177.25 66.823C177.039 66.4831 176.846 66.1696 176.719 65.9661C176.342 66.0497 175.985 66.2417 175.821 66.1353Z" fill="#231F20"/>
<path d="M201.153 60.2102C202.423 60.2231 203.321 61.1531 203.31 62.4906C201.764 62.4906 200.264 62.4906 198.764 62.4906C198.771 61.198 199.832 60.1968 201.153 60.2102ZM200.311 65.9809C199.372 65.5782 198.762 64.7239 198.767 63.7655C200.887 63.7655 203.009 63.7655 205.153 63.7655C205.619 61.5312 204.314 59.371 202.236 58.8949C200.605 58.521 199.092 58.8039 197.925 60.0788C196.719 61.397 196.513 62.9903 197.035 64.653C197.764 66.977 200.333 68.1937 202.927 67.4952C204.003 67.2055 204.913 66.6825 205.463 65.6123C205.045 65.3548 204.674 65.1262 204.317 64.9055C202.965 66.1968 201.629 66.5458 200.311 65.9809Z" fill="#231F20"/>
<path d="M150.136 60.2099C151.462 60.1889 152.362 61.0905 152.392 62.4913C150.873 62.4913 149.355 62.4913 147.837 62.4913C147.825 61.2457 148.856 60.2302 150.136 60.2099ZM149.472 66.0115C148.469 65.6648 147.832 64.7549 147.828 63.738C149.965 63.738 152.102 63.738 154.226 63.738C154.659 61.6215 153.481 59.5509 151.548 58.9479C149.236 58.2265 146.846 59.3729 146.108 61.5572C145.277 64.0177 146.434 66.5387 148.782 67.3704C150.021 67.8098 151.269 67.7923 152.495 67.3406C153.358 67.0225 154.091 66.5143 154.526 65.6131C154.136 65.3701 153.765 65.1398 153.367 64.892C152.269 66.1519 150.979 66.5322 149.472 66.0115Z" fill="#231F20"/>
<path d="M223.814 66.1252C222.218 66.086 221.175 64.9269 221.187 63.2075C221.2 61.4512 222.274 60.3253 223.917 60.348C225.509 60.37 226.566 61.536 226.549 63.2502C226.531 64.9874 225.411 66.1644 223.814 66.1252ZM223.865 58.7578C221.149 58.7575 219.355 60.5484 219.367 63.2478C219.38 65.9059 221.186 67.6889 223.868 67.6892C226.545 67.6897 228.354 65.9028 228.364 63.2457C228.374 60.5446 226.583 58.758 223.865 58.7578Z" fill="#231F20"/>
<path d="M163.175 58.9749C161.753 58.5542 160.476 58.8411 159.433 59.9496C159.316 60.0742 159.237 60.235 159.085 60.4624C158.715 58.9391 158.604 58.8684 157.242 59.1543C157.242 61.8558 157.242 64.5648 157.242 67.316C157.864 67.316 158.433 67.316 159.048 67.316C159.048 67.0539 159.048 66.8346 159.048 66.6156C159.048 65.4272 159.023 64.238 159.061 63.0505C159.076 62.5584 159.144 62.036 159.332 61.5876C159.717 60.6662 160.804 60.1746 161.787 60.38C162.67 60.564 163.149 61.2436 163.178 62.3723C163.189 62.835 163.18 63.2987 163.181 63.7619C163.181 64.9436 163.181 66.1254 163.181 67.3229C163.82 67.3229 164.389 67.3229 164.975 67.3229C164.975 65.3166 165.026 63.345 164.955 61.3781C164.914 60.2317 164.34 59.3191 163.175 58.9749Z" fill="#231F20"/>
<path d="M237.871 59.0595C237.426 59.0129 237.248 59.2074 237.108 59.6089C236.461 61.4684 235.782 63.3169 235.111 65.1684C235.046 65.3497 234.964 65.5249 234.842 65.8154C234.181 63.9815 233.561 62.2682 232.945 60.5537C232.377 58.973 232.379 58.9723 230.681 59.0867C230.661 59.0882 230.642 59.097 230.539 59.1259C230.617 59.3462 230.678 59.5323 230.748 59.7145C231.52 61.7209 232.291 63.7275 233.067 65.7325C233.27 66.2564 233.348 66.9818 233.733 67.2398C234.141 67.5129 234.849 67.3134 235.42 67.3683C235.86 67.4101 236.045 67.231 236.197 66.8314C237.093 64.4637 238.019 62.1072 238.93 59.7461C239.006 59.5507 239.064 59.3478 239.156 59.0681C238.664 59.0681 238.264 59.1004 237.871 59.0595Z" fill="#231F20"/>
<path d="M141.336 67.3277C141.939 67.3277 142.509 67.3277 143.1 67.3277C143.1 63.3283 143.1 59.3555 143.1 55.3539C142.502 55.3539 141.949 55.3539 141.336 55.3539C141.336 59.3801 141.336 63.3379 141.336 67.3277Z" fill="#231F20"/>
</g>
<defs>
<clipPath id="clip0_247_4131">
<rect width="317" height="88" fill="white"/>
</clipPath>
</defs>
</svg>
