<svg width="603" height="604" viewBox="0 0 603 604" fill="none" xmlns="http://www.w3.org/2000/svg">
<path d="M24.1353 303.817C15.5848 303.957 7.5093 303.67 0.0429688 303.029C8.27484 303.029 16.3042 303.296 24.1353 303.817C124.57 302.171 290.535 241.473 304.543 0.0288086C307.043 99.0288 370.043 297.029 602.043 297.029C504.21 313.362 308.343 397.529 307.543 603.529C299.193 507.024 230.539 317.541 24.1353 303.817Z" fill="#D9F545" fill-opacity="0.5"/>
<path d="M0.0429688 303.029C95.2096 311.195 289.343 262.029 304.543 0.0288086C307.043 99.0288 370.043 297.029 602.043 297.029C504.21 313.362 308.343 397.529 307.543 603.529C298.876 503.362 225.243 303.029 0.0429688 303.029Z" stroke="#C0E13C" stroke-opacity="0.39"/>
</svg>
