<svg width="279" height="278" viewBox="0 0 279 278" fill="none" xmlns="http://www.w3.org/2000/svg">
<path d="M0.0117188 139.058C44.5117 138.058 134.512 108.858 138.512 0.0584717C144.157 47.9626 178.118 140.447 268.763 139.472C272.008 139.213 275.103 139.08 278.012 139.058C274.865 139.303 271.783 139.44 268.763 139.472C220.883 143.297 140.261 174.541 139.512 277.558C138.345 231.392 108.812 139.058 0.0117188 139.058Z" fill="#F7C5FD" fill-opacity="0.49"/>
<path d="M0.0117188 139.058C44.5117 138.058 134.512 108.858 138.512 0.0584717C144.345 49.5585 180.412 146.658 278.012 139.058C232.178 139.392 140.312 167.558 139.512 277.558C138.345 231.392 108.812 139.058 0.0117188 139.058Z" stroke="#F7C5FD" stroke-opacity="0.49"/>
</svg>
